<?xml version="1.0" standalone="no"?>
<!DOCTYPE svg PUBLIC "-//W3C//DTD SVG 20010904//EN"
 "http://www.w3.org/TR/2001/REC-SVG-20010904/DTD/svg10.dtd">
<svg version="1.0" xmlns="http://www.w3.org/2000/svg"
 width="200.000000pt" height="200.000000pt" viewBox="0 0 200.000000 200.000000"
 preserveAspectRatio="xMidYMid meet">
<metadata>
Created by potrace 1.11, written by Peter Selinger 2001-2013
</metadata>
<g transform="translate(0.000000,200.000000) scale(0.100000,-0.100000)"
fill="#000000" stroke="none">
<path d="M944 1952 c-33 -26 -112 -86 -175 -134 -63 -48 -170 -131 -239 -184
-69 -53 -148 -114 -177 -135 -30 -22 -50 -44 -47 -52 3 -6 71 -61 151 -122 80
-60 189 -144 243 -185 815 -623 785 -600 787 -608 1 -4 -54 -50 -123 -102 -70
-52 -176 -134 -238 -181 -92 -72 -114 -85 -126 -74 -64 52 -570 435 -575 435
-16 0 -105 -72 -99 -81 5 -9 145 -118 369 -289 61 -46 156 -119 212 -162 56
-43 105 -78 108 -78 4 0 122 89 264 197 389 299 420 323 425 332 3 4 -25 31
-62 59 -156 117 -308 234 -319 245 -10 10 16 34 122 115 l134 102 -1 -138 c0
-75 0 -144 1 -153 1 -17 101 -99 121 -99 7 0 10 105 10 320 0 249 -3 320 -12
320 -7 0 -79 -51 -160 -113 -80 -61 -189 -145 -242 -185 -65 -50 -100 -71
-109 -65 -7 4 -162 122 -345 262 l-331 254 107 81 c59 45 145 111 192 147 47
36 112 86 145 111 l59 45 139 -106 c463 -354 449 -343 471 -331 40 22 85 66
78 76 -6 9 -227 179 -427 329 -44 33 -82 62 -85 65 -14 16 -170 130 -177 130
-4 -1 -35 -22 -69 -48z"/>
<path d="M307 1303 c-9 -16 -8 -631 1 -637 8 -5 41 17 105 69 15 13 17 34 17
172 0 127 2 154 13 141 6 -8 100 -82 207 -163 107 -82 228 -175 269 -207 40
-32 79 -58 85 -58 7 0 49 28 95 62 l83 62 -29 24 c-15 13 -38 33 -51 43 -28
24 -28 24 -64 -6 -26 -22 -33 -24 -48 -13 -10 7 -150 114 -311 238 -375 288
-367 282 -372 273z"/>
</g>
</svg>
